# xmcd
#
# Track frame offsets:
#	150
#	12233
#	31006
#
# Disc length: 699 seconds
#
# Revision: 0
# Processed by: cddbd v1.4PL0 Copyright (c) Steve Scherf et al.
# Submitted via: dBpowerAMP V4.0
#
DISCID=1402b903
DTITLE=P.D. Riches - Shoes Lying In The Hall
DYEAR=1999
DGENRE=Country
TTITLE0=Shoes Lying In The Hall
TTITLE1=Systems
TTITLE2=Promised Land
EXTD=
EXTT0=
EXTT1=
EXTT2=
PLAYORDER=
